<svg width="34" height="33" viewBox="0 0 34 33" fill="none" xmlns="http://www.w3.org/2000/svg">
<g filter="url(#filter0_d_259_12355)">
<path d="M27.1638 6.06258C25.2621 5.15004 23.2552 4.49933 21.1934 4.12674C21.1746 4.12291 21.1551 4.12543 21.1378 4.13393C21.1204 4.14242 21.1061 4.15646 21.0969 4.17402C20.8402 4.65319 20.5542 5.27802 20.3538 5.77125C18.1311 5.4183 15.8703 5.4183 13.6476 5.77125C13.4246 5.22474 13.1728 4.69152 12.8935 4.17402C12.8839 4.15686 12.8695 4.14315 12.8523 4.13471C12.835 4.12627 12.8158 4.12349 12.797 4.12674C10.735 4.49855 8.72799 5.14929 6.8266 6.06258C6.8105 6.06964 6.79685 6.08168 6.78749 6.09708C2.98404 12.0375 1.94152 17.8309 2.45362 23.5516C2.45486 23.5658 2.45886 23.5795 2.46538 23.5921C2.47189 23.6046 2.48078 23.6156 2.4915 23.6244C4.70561 25.3394 7.18239 26.6486 9.81607 27.4961C9.83463 27.5017 9.85439 27.5013 9.87273 27.4949C9.89106 27.4885 9.90711 27.4764 9.91873 27.4603C10.4834 26.6553 10.9869 25.8056 11.4171 24.9124C11.4231 24.9002 11.4266 24.8868 11.4273 24.8731C11.428 24.8594 11.4259 24.8457 11.4212 24.8329C11.4165 24.8201 11.4092 24.8085 11.3998 24.7989C11.3905 24.7892 11.3793 24.7817 11.367 24.777C10.5768 24.4608 9.81175 24.0797 9.07909 23.6372C9.06566 23.6291 9.05436 23.6176 9.04619 23.6038C9.03802 23.59 9.03324 23.5743 9.03227 23.5581C9.0313 23.5419 9.03418 23.5258 9.04064 23.511C9.0471 23.4963 9.05695 23.4834 9.06931 23.4736C9.2236 23.3529 9.37519 23.2285 9.52397 23.1005C9.53698 23.0895 9.55267 23.0824 9.56929 23.0802C9.58591 23.0779 9.6028 23.0805 9.61807 23.0877C14.4188 25.3788 19.6156 25.3788 24.3601 23.0877C24.3755 23.0803 24.3927 23.0775 24.4095 23.0798C24.4264 23.082 24.4423 23.0892 24.4554 23.1005C24.6021 23.2257 24.7561 23.3535 24.9113 23.4736C24.9235 23.4833 24.9333 23.4959 24.9398 23.5104C24.9463 23.5249 24.9493 23.5408 24.9486 23.5568C24.9479 23.5728 24.9434 23.5883 24.9357 23.6021C24.9279 23.6159 24.917 23.6275 24.904 23.6359C24.173 24.0825 23.4072 24.4638 22.6148 24.7757C22.6025 24.7806 22.5913 24.7882 22.5819 24.798C22.5726 24.8077 22.5653 24.8195 22.5606 24.8324C22.5559 24.8452 22.5538 24.859 22.5545 24.8728C22.5552 24.8866 22.5587 24.9001 22.5647 24.9124C23.0047 25.8043 23.5082 26.6527 24.0619 27.459C24.0733 27.4754 24.0893 27.4877 24.1077 27.4941C24.1261 27.5006 24.146 27.5008 24.1645 27.4948C26.8026 26.65 29.2834 25.3406 31.5001 23.6231C31.5109 23.6151 31.52 23.6049 31.5267 23.593C31.5334 23.5811 31.5377 23.5678 31.5392 23.5541C32.1503 16.939 30.515 11.1929 27.2017 6.09964C27.1939 6.08246 27.1805 6.06883 27.1638 6.0613V6.06258ZM12.1346 20.0671C10.6887 20.0671 9.4983 18.6807 9.4983 16.9761C9.4983 15.2728 10.6667 13.8852 12.1346 13.8852C13.6134 13.8852 14.794 15.2856 14.7708 16.9774C14.7708 18.6807 13.6024 20.0671 12.1346 20.0671V20.0671ZM21.8815 20.0671C20.4357 20.0671 19.2452 18.6807 19.2452 16.9761C19.2452 15.2728 20.4124 13.8852 21.8815 13.8852C23.3603 13.8852 24.541 15.2856 24.5178 16.9774C24.5178 18.6807 23.3616 20.0671 21.8815 20.0671V20.0671Z" fill="#FFD7B7"/>
</g>
<defs>
<filter id="filter0_d_259_12355" x="-1" y="-2" width="36" height="37" filterUnits="userSpaceOnUse" color-interpolation-filters="sRGB">
<feFlood flood-opacity="0" result="BackgroundImageFix"/>
<feColorMatrix in="SourceAlpha" type="matrix" values="0 0 0 0 0 0 0 0 0 0 0 0 0 0 0 0 0 0 127 0" result="hardAlpha"/>
<feOffset/>
<feGaussianBlur stdDeviation="1"/>
<feComposite in2="hardAlpha" operator="out"/>
<feColorMatrix type="matrix" values="0 0 0 0 0.229167 0 0 0 0 0.0315538 0 0 0 0 0.0185243 0 0 0 1 0"/>
<feBlend mode="normal" in2="BackgroundImageFix" result="effect1_dropShadow_259_12355"/>
<feBlend mode="normal" in="SourceGraphic" in2="effect1_dropShadow_259_12355" result="shape"/>
</filter>
</defs>
</svg>
