<svg width="68" height="48" viewBox="0 0 68 48" fill="none" xmlns="http://www.w3.org/2000/svg">
<path d="M29.5 43.5C29.5 45.9853 31.5147 48 34 48C36.4853 48 38.5 45.9853 38.5 43.5H29.5ZM37.182 1.81802C35.4246 0.0606613 32.5754 0.0606613 30.818 1.81802L2.18019 30.4558C0.422836 32.2132 0.422836 35.0624 2.18019 36.8198C3.93755 38.5772 6.7868 38.5772 8.54416 36.8198L34 11.364L59.4558 36.8198C61.2132 38.5772 64.0624 38.5772 65.8198 36.8198C67.5772 35.0624 67.5772 32.2132 65.8198 30.4558L37.182 1.81802ZM38.5 43.5V5H29.5V43.5H38.5Z" fill="#489000"/>
</svg>
