<svg width="68" height="48" viewBox="0 0 68 48" fill="none" xmlns="http://www.w3.org/2000/svg">
<path d="M30.818 46.182C32.5754 47.9393 35.4246 47.9393 37.182 46.182L65.8198 17.5442C67.5772 15.7868 67.5772 12.9376 65.8198 11.1802C64.0624 9.42284 61.2132 9.42284 59.4558 11.1802L34 36.636L8.54416 11.1802C6.7868 9.42284 3.93755 9.42284 2.18019 11.1802C0.422836 12.9376 0.422836 15.7868 2.18019 17.5442L30.818 46.182ZM38.5 4.5C38.5 2.01472 36.4853 0 34 0C31.5147 0 29.5 2.01472 29.5 4.5H38.5ZM38.5 43L38.5 4.5H29.5L29.5 43H38.5Z" fill="#489000"/>
</svg>
