<svg width="49" height="35" viewBox="0 0 49 35" fill="none" xmlns="http://www.w3.org/2000/svg">
<path fill-rule="evenodd" clip-rule="evenodd" d="M48.0716 17.5003C48.0716 16.2404 47.0503 15.2191 45.7904 15.2191H3.20703C1.94713 15.2191 0.925781 16.2404 0.925781 17.5003C0.925781 18.7602 1.94713 19.7816 3.20703 19.7816H45.7904C47.0503 19.7816 48.0716 18.7602 48.0716 17.5003Z" fill="#FFD7B7"/>
<path fill-rule="evenodd" clip-rule="evenodd" d="M48.0716 2.29199C48.0716 1.03209 47.0503 0.0107422 45.7904 0.0107422H3.20703C1.94713 0.0107422 0.925781 1.03209 0.925781 2.29199C0.925781 3.55189 1.94713 4.57324 3.20703 4.57324H45.7904C47.0503 4.57324 48.0716 3.55189 48.0716 2.29199Z" fill="#FFD7B7"/>
<path fill-rule="evenodd" clip-rule="evenodd" d="M48.0716 32.7087C48.0716 31.4488 47.0503 30.4274 45.7904 30.4274H3.20703C1.94713 30.4274 0.925781 31.4488 0.925781 32.7087C0.925781 33.9686 1.94713 34.9899 3.20703 34.9899H45.7904C47.0503 34.9899 48.0716 33.9686 48.0716 32.7087Z" fill="#FFD7B7"/>
</svg>
