<svg width="48" height="48" viewBox="0 0 48 48" fill="none" xmlns="http://www.w3.org/2000/svg">
<g clip-path="url(#clip0_369_219)">
<path d="M46.6197 36.8425L38.0362 28.9115C36.1897 27.2053 36.1897 24.435 38.0362 22.7288L46.6197 14.8062C48.4662 13.1001 48.4662 10.3297 46.6197 8.62359L42.6159 4.92414C40.7694 3.218 37.7711 3.218 35.9246 4.92414L27.3411 12.8552C25.4946 14.5613 22.4963 14.5613 20.6498 12.8552L12.0663 4.92414C10.2198 3.218 7.22152 3.218 5.37502 4.92414L1.37121 8.62359C-0.475298 10.3297 -0.475298 13.1001 1.37121 14.8062L9.95472 22.7373C11.8012 24.4434 11.8012 27.2138 9.95472 28.9199L1.37121 36.8509C-0.475298 38.5571 -0.475298 41.3274 1.37121 43.0336L5.37502 46.733C7.22152 48.4392 10.2198 48.4392 12.0663 46.733L20.6498 38.802C22.4963 37.0959 25.4946 37.0959 27.3411 38.802L35.9246 46.733C37.7711 48.4392 40.7694 48.4392 42.6159 46.733L46.6197 43.0251C48.4662 41.3106 48.4662 38.5486 46.6197 36.8425Z" fill="#CF5C2B"/>
<path d="M46.619 33.1936L38.0355 25.2625C36.189 23.5564 36.189 20.786 38.0355 19.0799L46.619 11.1573C48.4655 9.45117 48.4655 6.68081 46.619 4.97467L42.6152 1.27521C40.7687 -0.43093 37.7704 -0.43093 35.9239 1.27521L27.3404 9.20623C25.4939 10.9124 22.4956 10.9124 20.6491 9.20623L12.0656 1.27521C10.2191 -0.43093 7.22082 -0.43093 5.37431 1.27521L1.38879 4.97467C-0.45772 6.68081 -0.45772 9.45117 1.38879 11.1573L9.97229 19.0883C11.8188 20.7945 11.8188 23.5648 9.97229 25.271L1.38879 33.1936C-0.45772 34.8997 -0.45772 37.6701 1.38879 39.3762L5.38345 43.0757C7.22996 44.7818 10.2282 44.7818 12.0747 43.0757L20.6583 35.1446C22.5048 33.4385 25.503 33.4385 27.3496 35.1446L35.9239 43.0757C37.7704 44.7818 40.7687 44.7818 42.6152 43.0757L46.619 39.3762C48.4655 37.6701 48.4655 34.8997 46.619 33.1936Z" fill="#FFD7B7"/>
</g>
<defs>
<clipPath id="clip0_369_219">
<rect width="48" height="48" fill="white"/>
</clipPath>
</defs>
</svg>
